<?xml version="1.0" encoding="UTF-8"?>
  <svg id="uuid-face176d-fbe1-4b35-b97c-ef399d968a12" xmlns="http://www.w3.org/2000/svg" viewBox="0 0 897.55 696.03">
    <g id="uuid-8d048fab-a5fa-4bdb-8541-24b25ee1ca0e">
      <path d="M440.85,695.93h-118.98c-.37-.9-1.03-1.76-1.45-2.53v-.72h-.36v-.72h-.36l-.36-1.45h-.36v-.72h-.36v-1.08h-.36l-.72-2.17h-.36v-.72h-.36v-.72h-.36v-.72h-.36v-.72h-.36l-.72-2.17h-.36v-1.08h-.36l-.72-2.17h-.36v-.72h-.36v-.72h-.36v-.72h-.36v-.72h-.36v-.72h-.36v-.72h-.36v-.72h-.36v-1.08h-.36l-.72-2.17h-.36v-.72h-.36v-.72h-.36v-.72h-.36v-.72h-.36v-.72h-.36v-.72h-.36v-.72h-.36v-.72h-.36v-1.08h-.36l-.72-2.17h-.36v-.72h-.36v-.72h-.36v-.72h-.36v-.72h-.36v-.72h-.36v-.72h-.36v-.72h-.36v-1.08h-.36l-.72-2.17h-.36v-.72h-.36v-.72h-.36v-.72h-.36v-.72h-.36v-.72h-.36v-.72h-.36v-.72h-.36v-1.08h-.36l-.72-2.17h-.36v-.72h-.36v-.72h-.36v-.72h-.36v-.72h-.36v-.72h-.36v-.72h-.36v-.72h-.36v-1.08h-.36l-.72-2.17h-.36v-.72h-.36v-.72h-.36v-.72h-.36v-.72h-.36v-.72h-.36v-.72h-.36v-.72h-.36c-15.52-34.33-32.55-67.3-48.1-101.62h-.36l-.72-2.17h-.36v-.72h-.36v-.72h-.36v-.72h-.36v-.72h-.36v-.72h-.36v-.72h-.36v-.72h-.36v-1.08h-.36l-.72-2.17h-.36v-.72h-.36v-.72h-.36v-.72h-.36v-.72h-.36v-.72h-.36v-.72h-.36v-.72h-.36l-1.08-3.25h-.36v-.72h-.36v-.72h-.36v-.72h-.36v-.72h-.36l-.72-2.17h-.36v-1.08h-.36l-.72-2.17h-.36v-.72h-.36v-.72h-.36v-.72h-.36v-.72h-.36v-.72h-.36v-.72h-.36v-.72h-.36v-.72h-.36v-1.08h-.36l-.72-2.17h-.36v-.72h-.36v-.72h-.36v-.72h-.36v-.72h-.36v-.72h-.36v-.72h-.36v-.72h-.36v-1.08h-.36l-.72-2.17h-.36v-.72h-.36v-.72h-.36v-.72h-.36v-.72h-.36v-.72h-.36v-.72h-.36v-.72h-.36v-1.08h-.36l-.72-2.17h-.36v-.72h-.36v-.72h-.36v-.72h-.36v-.72h-.36v-.72h-.36v-.72h-.36v-.72h-.36v-1.08h-.36l-.72-2.17h-.36v-.72h-.36v-.72h-.36v-.72h-.36v-.72h-.36v-.72h-.36v-.72h-.36v-.72h-.36v-1.08h-.36l-.72-2.17h-.36v-.72h-.36v-.72h-.36v-.72h-.36v-.72h-.36l-.72-2.17h-.36v-1.08h-.36l-.72-2.17h-.36v-.72h-.36v-.72h-.36v-.72h-.36v-.72h-.36v-.72h-.36v-.72h-.36v-.72h-.36v-1.08h-.36l-.72-2.17h-.36v-.72h-.36v-.72h-.36v-.72h-.36v-.72h-.36v-.72h-.36v-.72h-.36v-.72h-.36v-1.08h-.36l-.72-2.17h-.36v-.72h-.36v-.72h-.36v-.72h-.36v-.72h-.36v-.72h-.36v-.72h-.36v-.72h-.36v-1.08h-.36l-.72-2.17h-.36v-.72h-.36v-.72h-.36v-.72h-.36v-.72h-.36v-.72h-.36v-.72h-.36v-.72h-.36v-.72h-.36v-1.08h-.36l-.72-2.17h-.36v-.72h-.36v-.72h-.36v-.72h-.36v-.72h-.36v-.72h-.36v-.72h-.36v-.72h-.36v-1.08h-.36l-.72-2.17h-.36v-.72h-.36v-.72h-.36v-.72h-.36v-.72h-.36v-.72h-.36v-.72h-.36v-.72h-.36v-1.08h-.36l-.72-2.17h-.36v-.72h-.36v-.72h-.36v-.72h-.36v-.72h-.36v-.72h-.36v-.72h-.36v-.72h-.36v-1.08h-.36l-.36-1.45h-.36l-.36-1.45h-.36v-.72h-.36v-.72h-.36v-.72h-.36l-.72-2.17h-.36l-.36-1.81h-.36v-.72c-.5-.94-1.15-1.63-1.45-2.89h-.72l-.36,2.17h-.36v1.45h-.36v1.08h-.36v1.08h-.36l-.72,3.62h-.36v1.45h-.36v1.08h-.36v1.08h-.36v1.08h-.36l-.72,3.62h-.36l-1.08,4.7h-.36l-.72,3.62h-.36v1.45h-.36v1.08h-.36v1.08h-.36l-1.08,4.7h-.36l-.72,3.62h-.36v1.45c-4.59,12.58-7.74,26.47-12.3,39.06v1.45h-.36v1.08h-.36v1.08h-.36v1.45c-2.73,7.5-4.88,16-7.59,23.51v1.45h-.36v1.08h-.36v1.08h-.36v1.45h-.36v1.08h-.36v1.08h-.36l-1.08,4.7h-.36l-.72,3.62h-.36l-.72,3.62h-.36l-1.08,4.7h-.36v1.45h-.36v1.08h-.36v1.08h-.36v1.45h-.36v1.08h-.36v1.08h-.36v1.08h-.36l-.72,3.62h-.36l-.72,3.62h-.36l-1.08,4.7h-.36l-.72,3.62h-.36v1.45h-.36v1.08h-.36v1.08h-.36v1.45h-.36v1.08h-.36v1.08h-.36v1.08h-.36l-.72,3.62h-.36l-1.08,4.7h-.36l-.72,3.62h-.36v1.45h-.36v1.08h-.36v1.08h-.36v1.45h-.36v1.08h-.36v1.08h-.36v1.08h-.36l-.72,3.62h-.36l-.72,3.62h-.36v1.45c-4.58,12.58-7.74,26.45-12.3,39.06v1.45h-.36v1.08h-.36v1.08h-.36v1.08h-.36l-.72,3.62h-.36l-.72,3.62h-.36v1.45c-4.15,11.4-7.09,24.03-11.21,35.44v1.45h-.36v1.08h-.36v1.08h-.36l-1.08,4.7h-.36l-.72,3.62h-.36v1.45h-.36v1.08h-.36v1.08h-.36v1.45h-.36v1.08h-.36v1.08h-.36v1.08h-.36l-.72,3.62h-.36l-.72,3.62h-.36v1.45h-.36v1.08h-.36l-.72,3.62h-.36c-.88.77-3.89.36-5.42.36H0l2.53-9.04h.36v-1.45h.36v-1.08h.36v-1.08h.36v-1.45h.36v-1.08h.36v-1.08h.36v-1.08h.36l.72-3.62h.36l.72-3.62h.36l1.08-4.7h.36v-1.45h.36v-1.08h.36v-1.08h.36l1.08-4.7h.36l.72-3.62h.36v-1.45c4.59-12.58,7.74-26.47,12.3-39.06v-1.45h.36v-1.08h.36v-1.08h.36v-1.45h.36v-1.08h.36v-1.08h.36v-1.08h.36l.72-3.62h.36l.72-3.62h.36l1.08-4.7h.36l.72-3.62h.36v-1.45h.36v-1.08h.36v-1.08h.36v-1.45h.36v-1.08h.36v-1.08h.36v-1.08h.36l.72-3.62h.36l1.08-4.7h.36l.72-3.62h.36v-1.45h.36v-1.08h.36v-1.08h.36v-1.45h.36v-1.08h.36v-1.08h.36v-1.08h.36l.72-3.62h.36l.72-3.62h.36l1.08-4.7h.36v-1.45h.36v-1.08h.36v-1.08h.36v-1.45h.36v-1.08h.36v-1.08h.36v-1.08h.36l.72-3.62h.36l.72-3.62h.36v-1.45c5.14-14.11,8.64-29.64,13.74-43.76v-1.45h.36v-1.08h.36v-1.08h.36l.72-3.62h.36l1.08-4.7h.36v-1.45c4.03-11.07,6.85-23.29,10.85-34.36v-1.45h.36v-1.08h.36v-1.08h.36l1.08-4.7h.36l.72-3.62h.36v-1.45h.36v-1.08h.36v-1.08h.36v-1.08h.36l.72-3.62h.36l.72-3.62h.36v-1.45h.36v-1.08h.36v-1.08h.36v-1.08h.36l.72-3.62h.36l.72-3.62h.36v-1.45c4.58-12.57,7.74-26.46,12.3-39.06v-1.45h.36v-1.08h.36v-1.08h.36v-1.08h.36l.72-3.62h.36l.72-3.62h.36v-1.45c3.59-9.86,6.19-20.85,9.76-30.74v-1.45h.36v-1.08h.36v-1.08h.36v-1.08h.36l.72-3.62h.36v-1.45c3.16-8.68,5.54-18.44,8.68-27.12v-1.45h.36v-1.08h.36v-1.08h.36v-1.45c3.16-8.68,5.54-18.44,8.68-27.12v-1.45h.36v-1.08h.36v-1.08h.36v-1.45h.36v-1.08h.36v-1.08h.36v-1.08h.36l.72-3.62h.36l.72-3.62h.36l1.08-4.7h.36v-1.45h.36v-1.08h.36v-1.08h.36v-1.45h.36v-1.08h.36v-1.08h.36v-1.08h.36l.72-3.62h.36l.72-3.62h.36l1.08-4.7h.36v-1.45h.36v-1.08h.36v-1.08h.36v-1.45h.36v-1.08h.36v-1.08h.36l1.08-4.7h.36l.72-3.62h.36v-1.45h.36v-1.08h.36v-1.08h.36v-1.45c4.15-11.39,7.09-24.03,11.21-35.44v-1.45h.36v-1.08h.36v-1.08h.36v-1.45h.36v-1.08h.36v-1.08h.36v-1.08h.36l.72-3.62h.36l.72-3.62h.36v-1.45h.36v-1.08h.36v-1.08h.36v-1.08h.36l.72-3.62h.36l1.08-4.7h.36l.72-3.62h.36v-1.45h.36v-1.08h.36v-1.08h.36v-1.45h.36v-1.08h.36v-1.08h.36v-1.08h.36l.72-3.62h.36l.72-3.62h.36v-1.45c5.13-14.1,8.64-29.64,13.74-43.76v-1.45h.36v-1.08h.36v-1.08h.36v-1.45c2.6-7.16,4.66-15.26,7.23-22.42v-1.45h.36v-1.08h.36v-1.08h.36l.72-3.62h.36v-.72h.36v-1.08h.36l.36-1.45h.36v-1.08l.72-.36.72-2.17.72-.36.36-1.45,1.08-.72v-.72l1.08-.72v-.72l1.81-1.45,2.89-3.25h.72l.72-1.08,1.08-.36.36-.72,1.45-.36.36-.72,2.17-.72v-.36h.72v-.36l2.17-.72v-.36l3.25-.72v-.36h1.08v-.36h1.81v-.36h1.81v-.36h3.25v-.36h5.06v.36h2.89v.36h2.17v.36h1.45v.36h1.45v.36h1.08v.36h1.08v.36h.72v.36h1.08v.36l2.17.72v.36l1.45.36v.36l1.08.36.36.72h.72l.36.72h.72l.72,1.08h.72l1.81,2.17h.72l.72.72v.72l2.53,2.17v.72l1.08.72v.72l.72.36v.72l.72.36.72,2.17h.36v.72h.36l.72,2.17h.36v1.08c1.49,3.43,2.53,7.29,2.53,12.3v4.7h-.36v2.53h-.36v1.81h-.36v1.45h-.36v1.45c-5.52,15.32-9.29,32.07-14.83,47.38v1.45h-.36v1.08h-.36v1.08h-.36v1.45c-3.16,8.68-5.54,18.44-8.68,27.12v1.45h-.36v1.08h-.36v1.08h-.36l-1.08,4.7h-.36v1.45c-3.6,9.88-6.19,20.86-9.76,30.74v1.45h-.36v1.08h-.36v1.08h-.36l-.72,3.62h-.36v1.45c-4.15,11.39-7.09,24.03-11.21,35.44v1.45h-.36v1.08h-.36v1.08h-.36l-1.08,4.7h-.36v1.45c-3.58,9.89-6.22,20.87-9.76,30.74v1.45h-.36l-.72,3.62h-.36v1.08h-.36v1.08h-.36v1.45h-.36l-1.08,4.7h-.36v1.08h-.36v1.08h-.36l-.72,3.62c-.29.77-1.51,3.1-1.08,4.34h.36v.72h.36l.72,2.17h.36l.36,1.45h.36v1.08h.36v.72h.36v.72h.36v.72h.36l.72,2.17h.36v1.08h.36l.36,1.45h.36v.72h.36v.72h.36v.72h.36l.72,2.17h.36v1.08h.36l.72,2.17h.36v.72h.36v.72h.36v.72h.36v.72h.36v.72h.36v.72h.36v.72h.36v1.08h.36l.72,2.17h.36v.72h.36v.72h.36v.72h.36v.72h.36v.72h.36v.72h.36v.72h.36v1.08h.36l.72,2.17h.36v.72h.36v.72h.36v.72h.36v.72h.36v.72h.36v.72h.36v.72h.36v1.08h.36l.72,2.17h.36v.72h.36v.72h.36v.72h.36v.72h.36v.72h.36v.72h.36v.72h.36v1.08h.36l.72,2.17h.36v.72h.36v.72h.36v.72h.36v.72h.36v.72h.36v.72h.36v.72h.36v.72h.36v1.08h.36c.24.72.48,1.45.72,2.17h.36v.72h.36v.72h.36v.72h.36v.72h.36v.72h.36v.72h.36v.72h.36v1.08h.36l.72,2.17h.36v.72h.36v.72h.36v.72h.36v.72h.36v.72h.36v.72h.36v.72h.36v1.08h.36l.72,2.17h.36v.72h.36v.72h.36v.72h.36v.72h.36v.72h.36v.72h.36v.72h.36v1.08h.36l.72,2.17h.36v.72h.36v.72h.36v.72h.36v.72h.36v.72h.36v.72h.36v.72h.36v1.08h.36l.72,2.17h.36v.72h.36v.72h.36v.72h.36v.72h.36v.72h.36v.72h.36v.72h.36v1.08h.36l.72,2.17h.36v.72h.36v.72h.36v.72h.36v.72h.36v.72h.36v.72h.36v.72h.36v1.08h.36l.72,2.17h.36v.72h.36v.72h.36v.72h.36v.72h.36v.72h.36v.72h.36v.72h.36c11.72,25.93,24.42,50.74,36.16,76.67h.36l.72,2.17h.36v.72h.36v.72h.36v.72h.36v.72h.36v.72h.36v.72h.36v.72h.36v1.08h.36l.72,2.17h.36v.72h.36v.72h.36v.72h.36v.72h.36v.72h.36v.72h.36v.72h.36l1.08,3.25h.36v.72h.36v.72h.36v.72h.36v.72h.36l.72,2.17h.36v1.08h.36l.72,2.17h.36v.72h.36v.72h.36v.72h.36v.72h.36v.72h.36v.72h.36v.72h.36v.72h.36v1.08h.36l.72,2.17h.36v.72h.36v.72h.36v.72h.36v.72h.36v.72h.36v.72h.36v.72h.36v1.08h.36l.72,2.17h.36v.72h.36v.72h.36v.72h.36v.72h.36v.72h.36v.72h.36v.72h.36v1.08h.36l.72,2.17h.36v.72h.36v.72h.36v.72h.36v.72h.36v.72h.36v.72h.36v.72h.36v1.08h.36l.72,2.17h.36v.72h.36v.72h.36v.72h.36v.72h.36v.72h.36v.72h.36v.72h.36v1.08h.36l.72,2.17h.36v.72h.36v.72h.36v.72h.36v.72h.36l.72,2.17h.36v1.08h.36l.72,2.17h.36v.72h.36v.72h.36v.72h.36v.72h.36v.72h.36v.72h.36v.72h.36v1.08h.36l.72,2.17h.36v.72h.36v.72h.36v.72h.36v.72h.36v.72h.36v.72h.36v.72h.36v1.08h.36l.72,2.17h.36v.72h.36v.72h.36v.72h.36v.72h.36v.72h.36v.72h.36v.72h.36v1.08h.36l.72,2.17h.36v.72h.36v.72h.36v.72h.36v.72h.36v.72h.36v.72h.36v.72h.36v1.08h.36l.72,2.17h.36v.72h.36v.72h.36v.72h.36v.72h.36v.72h.36v.72h.36v.72h.36v.72h.36v1.08h.36l.72,2.17h.36v.72h.36v.72h.36v.72h.36v.72h.36v.72h.36v.72h.36v.72h.36v1.08h.36l.72,2.17h.36v.72h.36v.72h.36v.72h.36v.72h.36v.72h.36v.72h.36v.72h.36v1.08h.36l.72,2.17h.36v.72h.36v.72h.36v.72h.36v.72h.36v.72h.36v.72h.36v.72h.36v1.08h.36l.72,2.17h.36v.72h.36v.72c.63,1.17,1.45,2.06,1.81,3.62h.36v-44.48c-.79-.91-.36-6.84-.36-8.68v-24.95c-.12-32.3-.24-64.62-.36-96.92-.36-115.23-.72-230.5-1.08-345.73v-37.97c-.01-5.82-1.12-13.53.36-18.81.46-1.65,2-3.59,1.81-4.7-.54-3.2.36-7.9,1.08-10.13v-1.45h.36v-1.45c2.71-7.6,6.97-3.8,13.02-8.08l.72-1.08h.72l.36-.72,1.45-.36.36-.72h.72l.72-.72h.72v-.36h.72v-.36l1.45-.36v-.36l2.17-.36c3.47-1.36,5.47-1.81,10.49-1.81h1.08v.36h2.53v.36h1.81v.36h1.45v.36h1.45v.36h1.08v.36h.72v.36h1.08v.36l2.17.72v.36h.72v.36l2.17.72v.36l1.08.36.36.72h.72l.36.72h.72l1.45,1.81h.72l2.17,2.53.72.36v.72c8.2,6.56,9.26,7.4,1.81,1.45v.72l.72.36.36,1.08h.36v.72l.72.36.72,2.17.72.36v1.08h.36l.36,1.45h.36v1.08h.36c0,.24,0-9.52,0-9.28h.36v1.08h.36v1.45h.36v1.45h.36v1.81h.36v2.17h.36v7.96h-.36c-.12,1.21,1.57,1.33,1.45,2.53,1.12,7.14.72,16.69.72,24.95.12,34.23.24,68.48.36,102.71.6,174.42,1.21,348.89,1.81,523.3Z" fill="#fff" fill-rule="evenodd"/>
      <path d="M529.56,696.03h-72.6c-.93-159.87-.42-320.09-.72-480.04h-.36l.36-.72h-.36V35.04h.36v-2.53h.36v-1.81h.36v-1.44h.36l.72-3.25h.36v-.72h.36v-1.08h.36l.72-2.17h.36l.36-1.44.72-.36v-.72h.36l.36-1.08.72-.36v-.72l1.08-.72v-.72c1.91-1.71,3.88-3.35,5.42-5.42h.72l.72-1.08h.72l.36-.72,1.08-.36v-.36l1.44-.36.36-.72h.72v-.36l1.44-.36v-.36h1.08v-.36h.72v-.36h1.08v-.36h1.08v-.36h1.08v-.36h1.08v-.36h1.81v-.36l5.06-.36v-.36h4.7v.36h3.25v.36l3.61.36v.36h1.08v.36h1.08v.36h1.08v.36h1.08v.36l2.17.72v.36h.72v.36h.72v.36l2.17.72.36.72h.72l.36.72,1.08.36.72,1.08h.72c1.43,1.71,2.9,3.36,4.7,4.7v.72l1.44,1.08v.72l.72.36.36,1.08h.36l.36,1.44.72.36,1.08,3.25h.36v.72h.36l.36,1.81h.36v1.44h.36v1.08h.36v1.44h.36v1.81h.36c.85,51.28.33,102.59.72,153.87h.36v-.36c.72-.63.3-.79.72-1.44l.72-.36v-.72h.36v-.72l1.08-.72v-.72l1.44-1.08v-.72c1.56-1.09,2.77-2.52,3.97-3.97h.72l.72-1.08h.72l.72-1.08h.72l.36-.72,1.44-.36.36-.72h.72l.72-.72h.72v-.36h.72v-.36h.72v-.36h1.08v-.36h1.08v-.36c21.35-7.51,43.88,7.34,46.96,24.92h.36v1.44h.36v1.81h.36v2.53h.36v4.7h.36v5.06h.36v3.97h.36v3.25h.36v2.53h.36v2.89h.36c-.28,3.37,1.62,6.78,1.44,10.11h.36l.36,3.61h.36l.36,3.25h.36v1.44h.36v1.44h.36v1.44h.36v1.44h.36v1.44h.36v1.08h.36v1.44h.36v1.08h.36v1.44h.36l.36,2.17h.36v1.08h.36v1.08h.36v1.08h.36v1.08h.36v1.08h.36v1.08h.36l.72,3.25h.36v.72h.36v1.08h.36v.72h.36l.36,2.17h.36v.72h.36v1.08h.36l.36,1.44h.36v1.08h.36l.36,1.44h.36v1.08h.36v.72h.36l.72,2.17h.36v1.08h.36l.72,2.17h.36v.72h.36v.72h.36v.72h.36v.72h.36v.72h.36v.72h.36v.72l.72.72v.72l.72.36v.72l.72.72v.72h.36v.72h.36v.72l.72.36.72,2.17.72.36.36,1.44.72.36.36,1.44h.36l.36,1.08.72.36.36,1.44.72.36v.72h.36l.36,1.08.72.36v.72h.36l.36,1.08.72.36v.72l1.08.72v.72l.72.36v.72l1.08.72v.72l1.08.72v.72l1.08.72v.72l1.08.72v.72l1.44,1.08v.72l1.08.72v.36l.72.36v.72l2.17,1.81v.72l3.25,2.89v.72c2.77,2.29,5.18,4.93,7.59,7.59h.72l.36.72h.36l2.17,2.53h.72l1.81,2.17h.72l1.08,1.44h.72c.36.48.72.96,1.08,1.44h.72l.72,1.08h.72l.72,1.08h.72l.36.72h.72l.72,1.08h.72l.36.72h.72l.36.72h.72l.36.72h.72l.36.72,1.44.36.36.72,1.44.36.36.72,2.17.72.36.72h.72l.72.72h.72v.36h.72v.36h.72v.36h.72v.36h.72v.36h.72v.36h.72v.36l2.17.72v.36h1.08v.36l1.44.36v.36h1.08v.36h.72v.36h1.08v.36h.72v.36l2.17.36v.36h1.08v.36h1.08v.36h1.08v.36h1.08v.36h1.44v.36h1.08v.36h1.44v.36h1.44v.36l3.25.36v.36h2.17v.36h2.17v.36h2.89v.36h3.61v.36h12.28v-.36h3.61v-.36h2.53v-.36h2.17v-.36h2.17v-.36h1.44v-.36c4.73-.21,9.14-2.78,13.73-3.97v-.36l1.44-.36v-.36h.72v-.36h1.08v-.36l2.17-.72v-.36l1.44-.36.36-.72h.72v-.36h.72l.72-.72h.72l.36-.72h.72v-.36h.72v-.36l1.08-.36.36-.72h.72l.36-.72h.72v-.36l1.08-.36.36-.72h.72l.72-1.08h.72l.72-1.08h.72l1.08-1.44h.72l1.81-2.17h.72c2.94-3.33,6.09-6.43,9.39-9.39v-.72l2.17-1.81v-.72l1.44-1.08v-.72l1.44-1.08v-.72l1.08-.72v-.72l1.08-.72v-.72l.72-.36v-.72l.72-.36v-.72l.72-.36v-.72l.72-.36v-.72l.72-.36v-.72l.72-.36v-.72h.36v-.72l.72-.36.36-1.44.72-.36.72-2.17.72-.36v-.72l.72-.72v-.72h.36v-.72h.36v-.72h.36v-.72h.36l.36-1.44h.36v-.72h.36v-.72h.36v-.72h.36v-.72h.36l.36-1.44h.36v-.72h.36v-1.08h.36l.36-1.44h.36v-1.08h.36v-.72h.36l.36-1.81h.36v-1.08h.36v-.72h.36l.72-3.25h.36v-.72h.36l1.08-4.7h.36v-1.08h.36v-1.08h.36v-1.08h.36l.72-3.97h.36l.72-4.33h.36c.25-5.8,3.32-11.81,3.25-17.7h.36v-2.89h.36v-3.61h.36v-5.06h.36v-7.22h.36v-3.97h.36c1.1-11.77-.12-25.54-1.81-36.48h-.36v-2.53h-.36v-2.17h-.36v-2.17h-.36v-2.17h-.36v-1.81h-.36v-1.44h-.36c-.81-7.24-4.05-14.19-5.78-21.31h-.36v-.72h-.36l-.72-3.25h-.36v-.72h-.36v-1.08h-.36v-.72h-.36l-.36-1.81h-.36v-1.08h-.36v-.72h-.36v-1.08h-.36v-.72h-.36v-.72h-.36v-.72h-.36v-1.08h-.36v-.72h-.36l-.36-1.44h-.36v-1.08h-.36v-.72h-.36l-.36-1.44h-.36l-.36-1.44h-.36l-.36-1.44h-.36v-.72h-.36v-.72h-.36v-.72h-.36v-.72h-.36v-.72h-.36v-.72h-.36v-.72l-.72-.72v-.72l-.72-.36v-.72h-.36v-.72l-.72-.72v-.72l-.72-.36-.72-2.17-.72-.36-.72-2.17-.72-.36-.36-1.44h-.36l-.36-1.08-.72-.36-.36-1.44h-.36l-.36-1.08-.72-.36-.36-1.44-.72-.36v-.72h-.36l-.36-1.08-.72-.36v-.72h-.36l-.36-1.08-.72-.36v-.72l-1.08-.72v-.72l-.72-.36v-.72l-1.08-.72v-.72l-.72-.36v-.72l-1.08-.72v-.72l-1.08-.72v-.72l-1.08-.72v-.72l-1.44-1.08v-.72l-1.44-1.08v-.72l-1.44-1.08v-.72l-1.81-1.44v-.72l-2.17-1.81v-.72l-2.89-2.53v-.72c-4.35-4.09-8.66-8.19-12.64-12.64h-.72l-2.53-2.89h-.72l-1.81-2.17h-.72l-1.44-1.81h-.72l-.36-.72h-.36l-.36-.72h-.72l-2.17-2.53h-.72c-.98-1.21-1.92-2.42-3.25-3.25v-.36h-.72c-1.48-1.66-2.86-3.41-4.7-4.7v-.72l-1.81-1.44-.36-1.08-.72-.36v-.72l-.72-.36-.36-1.44-.72-.36-.36-1.44h-.36l-.72-2.17h-.36v-1.08h-.36v-.72h-.36v-1.08h-.36v-1.44h-.36v-1.08h-.36v-1.44h-.36c-1.08-6.7-.46-13.8,1.44-20.23h.36v-.72h.36v-1.08h.36l.72-2.17h.36l.36-1.44.72-.36.36-1.44.72-.36v-.72l1.08-.72v-.72l1.44-1.08v-.72c1.33-.83,2.28-2.05,3.25-3.25h.72l1.08-1.44h.72l.36-.72h.72v-.36l3.25-.72v-.36l5.78-.36v-.36l6.14.36v.36l4.33.36v.36h1.44v.36h1.08v.36h1.44v.36h.72v.36h1.08v.36h1.08v.36l2.17.36v.36l1.44.36v.36h1.08v.36l1.44.36v.36h1.08v.36l2.17.72v.36h.72v.36l1.44.36.36.72,2.17.72.36.72,1.44.36.36.72,1.44.36.36.72h.72l.36.72h.72v.36l1.08.36.36.72h.72l.36.72h.72l.72,1.08h.72l.36.72h.72l1.08,1.44h.72l.72,1.08h.72l1.08,1.44h.72l1.08,1.44h.72l1.44,1.81h.72l2.17,2.53h.72c1.04,1.14,1.87,2.5,3.25,3.25v.36h.72c1.9,2.2,3.87,4.31,6.14,6.14v.72c1.78,1.82,4.02,3.27,5.42,5.42h.36v.72l2.89,2.53v.72l2.17,1.81v.72l1.81,1.44v.72h.36c.39.61.72,1.23,1.44,1.44v.72l.72.36v.72l.72.36v.36l.72.36v.72l1.81,1.44v.72l1.44,1.08v.72l1.08.72v.72l1.08.72v.72l1.08.72v.72l.72.36v.72l1.08.72v.72h.36l.36,1.08.72.36v.72l1.08.72v.72l.72.36.36,1.08h.36v.72l.72.36v.72l.72.36v.72l.72.36v.72l.72.36.36,1.44.72.36v.72l.72.36.36,1.08h.36l.36,1.44.72.36.36,1.44h.36l.36,1.08.72.36v.72h.36v.72l.72.36.72,2.17.72.36.36,1.44.72.36.72,2.17.72.36v.72h.36v.72l.72.72v.72l.72.36v.72h.36v.72h.36v.72l.72.72v.72l.72.36.36,1.44.72.72v.72h.36v.72h.36v.72h.36l.36,1.44h.36l.36,1.44h.36l.36,1.44h.36v.72h.36v.72h.36v.72h.36v.72h.36v.72h.36l.36,1.44h.36v.72h.36v1.08h.36v.72h.36l.72,2.17h.36v1.08h.36v.72h.36l.36,1.44h.36v1.08h.36l.36,1.44h.36v1.08h.36l.36,1.44h.36v1.08h.36l.36,1.44h.36v1.08h.36v.72h.36v1.08h.36v.72h.36l.36,1.81h.36v1.08h.36l.36,2.17h.36v.72h.36v1.08h.36v.72h.36c3.8,13.35,9.88,27.06,11.2,41.18h.36v2.53h.36v2.89h.36v4.7h.36v5.78h.36c.81,15.12.77,31.09.36,46.23h-.36l-.36,10.84h-.36v3.61h-.36v3.61h-.36v2.89h-.36v2.53h-.36c-.09,6.04-2.56,12.51-2.89,18.42h-.36v1.44h-.36v1.81h-.36l-.72,4.33h-.36l-.36,2.89h-.36v1.44h-.36v1.44h-.36v1.44h-.36v1.08h-.36v1.44h-.36v1.08h-.36v1.08h-.36c-2.15,10.98-8,21.19-12.28,30.7l-.72.36v.72h-.36v.72l-.72.36c-.12.48-.24.96-.36,1.44l-.72.36v.72h-.36v.72l-.72.36-.72,2.17-.72.36-.36,1.44-.72.36-.36,1.44-.72.36-.36,1.44-.72.36v.72l-.72.36v.72l-.72.36v.72l-.72.36v.72l-.72.36v.72l-.72.36v.72l-1.08.72v.72l-.72.36v.72l-1.08.72v.72l-.72.36v.72l-1.08.72v.72l-.72.36v.36l-.72.36v.72c-.75,1.05-1.15.17-1.44,2.17.89.79,1.19,1.79,1.81,2.89h.36v.72h.36v.72h.36v.72h.36v.72l.72.36.36,1.44.72.36v.72l2.17,1.81v.72l.72.36v.72l1.81,1.44v.72h.36v.72l.72.36v.72h.36v.72l.72.72v.72l.72.36v.72l.72.72v.72h.36v.72h.36l.36,1.44.72.36v.72l.72.72v.72h.36v.72h.36v.72h.36v.72h.36l.72,2.17h.36v1.08h.36v.72h.36l.72,2.17h.36l.36,1.81h.36v.72h.36v1.08h.36l.36,1.44h.36v1.08h.36v.72h.36v1.08h.36v.72h.36c2.05,7,5.44,13.73,6.5,20.95h.36v1.08h.36v1.44h.36v1.44h.36v1.44h.36v1.44h.36v1.44h.36c1.03,8.03,3.65,16.3,3.97,24.56h.36v2.89h.36v3.25h.36v3.97h.36c.68,11.86.08,23.74,0,35.4h-.36c-.12,6.26-.24,12.52-.36,18.78h-.36v3.25h-.36v2.89h-.36c-.33,8.74-2.79,17.33-3.97,26.01h-.36l-.72,5.06h-.36v1.44h-.36v1.44h-.36v1.44h-.36v1.81h-.36v1.44h-.36v1.44h-.36v1.08h-.36l-.72,4.33h-.36l-.36,2.53h-.36l-.36,2.53h-.36l-.36,2.53h-.36v1.08h-.36v1.08h-.36v1.08h-.36v1.44h-.36v1.08h-.36v1.08h-.36v1.08h-.36v1.08h-.36v1.08h-.36v1.08h-.36l-.72,3.25h-.36v.72h-.36v1.08h-.36v1.08h-.36v1.08h-.36v1.08h-.36v.72h-.36l-.36,2.17h-.36v.72h-.36v1.08h-.36v.72h-.36v1.08h-.36l-.36,1.81h-.36v.72h-.36v1.08h-.36l-.36,1.44h-.36v1.08h-.36l-.36,1.44h-.36v1.08h-.36v.72h-.36l-.36,1.44h-.36v1.08h-.36l-.72,2.17h-.36v.72h-.36v.72h-.36v.72h-.36v.72l-.72.72v.72l-.72.36-.72,2.17-.72.36v.72h-.36v.72l-.72.36-.36,1.44-.72.36-.36,1.44-.72.36-.36,1.44-.72.36v.72l-.72.36v.72l-.72.36v.72h-.36l-.36,1.08-.72.36v.72l-.72.36v.72l-.72.36v.72h-.36l-.36,1.08-.72.36v.72l-1.08.72v.72l-.72.36v.72l-1.08.72v.72l-1.08.72v.72l-1.08.72v.72l-1.44,1.08v.72l-1.44,1.08v.72l-.72.36v.36l-.72.36v.72c-.6.48-1.2.96-1.81,1.44v.72c-7.55,7.95-15.17,15.57-23.12,23.12h-.72l-1.44,1.81h-.72l-1.08,1.44h-.72l-1.08,1.44h-.72l-.72,1.08-1.08.36-.36.72h-191.8c-.89-.98-2.34-1.15-2.89-2.53h-.72l-1.08-1.44h-.72l-1.44-1.81h-.72l-1.44-1.81h-.72l-2.53-2.89h-.72c-1.53-1.61-2.82-3.46-4.7-4.7v-.36h-.72c-1.04-1.14-1.87-2.5-3.25-3.25v-.72l-5.06-4.7v-.72l-2.89-2.53v-.72l-1.81-1.44v-.72c-.6-.48-1.2-.96-1.81-1.44v-.72l-1.44-1.08v-.72l-.72-.36v-.36l-.72-.36v-.72l-1.08-.72v-.72l-1.08-.72v-.72l-1.08-.72v-.72l-1.08-.72v-.72l-.72-.36v-.72l-1.08-.72v-.72l-.72-.36-.36-1.08h-.36v-.72l-.72-.36v-.72l-.72-.36v-.72l-.72-.36v-.72l-.72-.36v-.72l-.72-.36v-.72l-.72-.36-.36-1.44-.72-.36-.36-1.44-.72-.36-.36-1.44-.72-.36-.36-1.44-.72-.36-.72-2.17-.72-.36v-.72h-.36v-.72l-.72-.72v-.72l-.72-.36-.72-2.17h-.36l-.36-1.44h-.36l-.36-1.44h-.36v-.72h-.36v-.72h-.36v-.72h-.36v-.72h-.36c-2.89-7.79-7.72-15.64-9.75-23.84h-.36v-1.08h-.36v-1.08h-.36v-1.08h-.36v-1.08h-.36v-1.08h-.36v-1.08h-.36v-1.08h-.36v-1.08h-.36v-1.08h-.36v-1.08h-.36l-.72-3.61h-.36l-1.44-6.5h-.36c-.98-7.34-3.76-14.59-4.33-22.03h-.36l-.36-4.7h-.36v-2.53h-.36v-2.53h-.36v-2.89h-.36v-3.25h-.36v-3.97h-.36v-4.33h-.36c-.59-12.67-.4-25.75,0-38.29h.36c-.07-7.28,1.81-14.8,2.17-22.03h.36c.25-6.23,2.68-12.26,3.25-18.42h.36v-1.44h.36v-1.44h.36v-1.44h.36c.52-5.84,3.84-11.73,4.7-17.34h.36v-1.08h.36v-1.08h.36v-1.08h.36l.36-1.44h.36v-1.08h.36v-.72h.36v-.72l.72-.36.36-1.44.72-.36.36-1.44,1.08-.72v-.72l1.44-1.08v-.72c1.24-1.18,2.76-2.1,3.61-3.61h.72l1.08-1.44h.72l.72-1.08h.72l.36-.72,1.44-.36.36-.72,1.44-.36v-.36l1.44-.36v-.36l1.81-.36v-.36l3.25-.72v-.36l3.25-.36v-.36h2.53v-.36c3.61.12,7.22.24,10.84.36v.36h1.44v.36h1.44v.36l2.53.36v.36h.72v.36h1.08v.36l2.17.72v.36h.72v.36l2.17.72.36.72h.72l.36.72h.72l.72,1.08h.72l1.44,1.81h.72c.69.76,1.15,1.81,2.17,2.17v.72l1.81,1.44v.72l1.08.72v.72l.72.36.36,1.44.72.36.36,1.44h.36l.72,2.17h.36v1.08h.36v.72h.36v1.08h.36v1.08h.36v1.44h.36v1.44h.36v1.81h.36v2.89h.36v5.78h-.36v3.25h-.36v1.81h-.36v1.44h-.36v1.44h-.36v1.08h-.36v1.08h-.36v1.08h-.36v1.08h-.36l-.72,3.61h-.36l-.36,2.53h-.36l-.36,2.89h-.36v1.44h-.36v1.44h-.36v1.44h-.36v1.44h-.36l-.36,3.25h-.36c-.18,5.26-2.29,10.58-2.17,15.89h-.36v3.25h-.36v3.97h-.36c-.52,9.74-.5,20.31,0,30.34h.36v3.97h.36v3.25h.36v2.89h.36v2.53h.36v2.53h.36v1.81h.36v2.17h.36v1.81h.36v1.81h.36v1.81h.36l.72,4.7h.36l.36,2.89h.36l.72,3.97h.36l.72,3.61h.36v1.08h.36v1.08h.36v1.08h.36l.72,3.25h.36v.72h.36l.36,2.17h.36v.72h.36v1.08h.36v1.08h.36v.72h.36v1.08h.36l.36,1.44h.36v1.08h.36l.36,1.44h.36l.36,1.81h.36l.72,2.17h.36v.72h.36v.72h.36v.72h.36v.72h.36v.72h.36v.72h.36v.72h.36v.72l.72.72v.72l.72.36v.72h.36v.72l.72.72v.72l.72.36.36,1.44.72.36v.72h.36v.72h.36l.36,1.08.72.36.36,1.44.72.36v.72l.72.36v.72l1.08.72v.72h.36l.36,1.08.72.36v.72l.72.36.36,1.08,1.08.72v.72l1.44,1.08v.72l1.44,1.08v.72l1.81,1.44v.72l2.53,2.17v.72c2.52,2.31,5.08,4.56,7.22,7.22h.72l2.17,2.53h.72l1.44,1.81h.72l1.08,1.44h.72l.72,1.08h.72l.72,1.08h.72l.36.72h.72l.36.72h.72l.36.72h.72l.36.72h.72l.36.72h.72l.36.72,1.44.36.36.72h.72v.36h.72l.72.72h.72l.36.72,1.44.36v.36l2.17.72v.36h1.08v.36h.72v.36l1.44.36v.36h1.08v.36h.72v.36h1.08v.36h.72v.36l2.17.36v.36h1.08v.36h1.08v.36h1.08v.36l2.53.36v.36l2.89.36v.36l3.61.36v.36l4.7.36v.36c12.26,1.31,24.87-.41,36.48-3.97v-.36h.72v-.36l2.17-.36v-.36l1.81-.36v-.36h.72v-.36h1.08v-.36h.72v-.36l1.44-.36v-.36h.72v-.36h.72v-.36h.72v-.36h.72v-.36h.72v-.36h.72v-.36h.72l.72-.72h.72l.36-.72,1.44-.36.36-.72,1.44-.36.36-.72h.72l.36-.72h.72l.36-.72h.72v-.36l1.08-.36.36-.72h.72l.72-1.08h.72l.36-.72h.72l.36-.72h.36l.36-.72h.72l1.08-1.44h.72l1.44-1.81h.72l3.25-3.61h.72c1.13-1.74,2.83-2.94,4.33-4.33v-.72l3.61-3.25v-.72l1.81-1.44v-.72l1.81-1.44v-.72l1.08-.72v-.72l1.44-1.08v-.72l.72-.36v-.72l1.08-.72v-.72l.72-.36v-.72l1.08-.72v-.72l.72-.36v-.72l.72-.36.36-1.08h.36l.36-1.44h.36l.36-1.08.72-.36.36-1.44.72-.36v-.72h.36v-.72l.72-.36v-.72h.36v-.72l.72-.72v-.72l.72-.36v-.72l.72-.72v-.72h.36v-.72h.36v-.72h.36v-.72h.36v-.72h.36v-.72h.36v-.72h.36v-.72h.36l.72-2.17h.36l.36-1.81h.36l.36-1.44h.36v-1.08h.36l.36-1.44h.36c3.97-11.72,8.64-23.45,10.11-35.76h.36v-1.81h.36v-2.17h.36v-2.17h.36v-2.53h.36v-2.89h.36l.36-6.86h.36c.54-10.26.54-21.88,0-32.15h-.36v-3.97h-.36v-3.25h-.36v-2.53h-.36v-2.53h-.36v-2.53h-.36v-1.81h-.36v-2.17h-.36v-1.81h-.36v-1.81h-.36v-1.81h-.36v-1.44h-.36v-1.44h-.36l-.36-3.25h-.36l-.72-3.61h-.36l-.72-2.17h-.36v-.72h-.36v-.72h-.36v-.72h-.36l-.36-1.44-.72-.36v-.72h-.36v-.72h-.36v-.72h-.36v-.72h-.36v-.72h-.36v-.72l-.72-.72v-.72l-.72-.36-.72-2.17-.72-.36v-.72h-.36v-.72l-.72-.36v-.72h-.36v-.72l-.72-.72v-.72l-.72-.36-.72-2.17-.72-.36-.36-1.44h-.36l-.36-1.08-.72-.36v-.72h-.36l-.36-1.08-.72-.36v-.72l-.72-.36-.36-1.08h-.36l-.72-2.17-.72-.36-.36-1.44-.72-.36-.36-1.44-.72-.36v-.72h-.36l-.36-1.08c-1.57.19-2.2,1.58-3.61,1.44v.36h-1.08v.36l-1.44.36v.36l-1.81.36v.36c-6.27,1.83-12.29,4.92-18.78,5.78v.36h-1.44v.36h-1.44v.36h-1.44v.36h-1.44v.36h-1.81v.36l-3.61.36v.36h-2.17v.36h-2.17v.36h-2.53v.36h-2.89v.36h-2.53v.36h-2.89v.36h-2.89v.36h-5.06v.36h-6.14v-.36c-3.14.2-5.55-.53-8.67-.36v-.36h-4.33v-.36h-3.61v-.36h-2.89v-.36c-4.19.26-8.52-1.84-12.64-1.81v-.36l-4.7-.72v-.36l-2.89-.36v-.36l-2.53-.36v-.36l-2.53-.36v-.36h-1.08v-.36h-1.08v-.36h-1.44v-.36h-1.08v-.36h-1.08v-.36h-1.08v-.36h-1.08v-.36h-.72v-.36l-8.67-2.89v-.36l-1.44-.36v-.36h-1.08v-.36h-.72v-.36l-1.44-.36v-.36h-1.08v-.36h-.72v-.36l-1.44-.36v-.36l-1.44-.36v-.36h-.72v-.36h-.72v-.36h-.72v-.36h-.72v-.36h-.72v-.36h-.72v-.36h-.72v-.36h-.72v-.36h-.72l-.72-.72h-.72l-.36-.72h-.72v-.36h-.72l-.72-.72h-.72l-.36-.72-2.17-.72-.36-.72h-.72v-.36h-.72v-.36l-1.08-.36-.36-.72-1.44-.36v-.36l-1.08-.36-.36-.72h-.72l-.36-.72h-.72l-.36-.72h-.72l-.36-.72h-.72l-.36-.72h-.72v-.36l-1.08-.36-.36-.72h-.72l-.72-1.08h-.72l-.36-.72h-.72l-.72-1.08h-.72l-.72-1.08h-.72l-.72-1.08h-.72l-1.08-1.44-1.08-.36-.36-.72h-.72l-1.44-1.81h-.72l-1.44-1.81h-.72l-1.81-2.17h-.72l-2.53-2.89h-.72l-5.78-6.14h-.72c-.36-1.02-1.41-1.47-2.17-2.17v-.72l-6.14-5.78v-.72l-2.89-2.53v-.72l-2.17-1.81v-.72l-2.17-1.81v-.72l-1.44-1.08v-.72l-1.44-1.08v-.72l-1.44-1.08v-.72l-1.08-.72v-.72l-1.08-.72v-.72l-1.08-.72v-.72l-1.08-.72v-.72l-1.08-.72v-.72l-.72-.36v-.72l-1.08-.72v-.72l-.72-.36-.36-1.08h-.36v-.72l-.72-.36v-.72l-.72-.36v-.72l-.72-.36v-.72l-.72-.36v-.72l-.72-.36v-.72l-.72-.36v-.72l-.72-.36v-.72l-.72-.36-.36-1.44-.72-.36-.36-1.44-.72-.36-.36-1.44-.72-.36-.36-1.44-.72-.36v-.72l-.72-.72v-.72l-.72-.36-.72-2.17-.72-.36v-.72h-.36v-.72h-.36v-.72l-.72-.72v-.72l-.72-.36v-.72l-.72-.72v-.72h-.36v-.72h-.36v-.72h-.36v-.72h-.36l-.36-1.44h-.36v-.72h-.36v-.72h-.36v-.72h-.36v-.72h-.36l-.36-1.44h-.36v-.72h-.36v-1.08h-.36v-.72h-.36v-.72h-.36l-.72-2.17h-.36v-1.08h-.36v-.72h-.36l-.36-1.44h-.36v-1.08h-.36l-.36-1.44h-.36v-1.08h-.36v-.72h-.36v-1.08h-.36v-.72h-.36l-.36-1.81h-.36v-1.08h-.36v-.72h-.36v-1.08h-.36v-.72h-.36c-2.2-7.72-5.86-15.26-7.22-23.12h-.36v-1.08h-.36v-1.44h-.36c-.44-5.35-3.42-11.07-3.61-16.62h-.36v-1.44h-.36v-1.81h-.36c-.45-1.49.16-3.01-.72-3.97.24,151.33.48,302.7.72,454.03Z" fill="#fff" fill-rule="evenodd"/>
      <path d="M401.95,2.29c20.37,0,36.88,16.51,36.88,36.88s-16.51,36.88-36.88,36.88-36.88-16.51-36.88-36.88S381.58,2.29,401.95,2.29Z" fill="#e7dcdc" fill-rule="evenodd"/>
    </g>
  </svg>